<svg xmlns="http://www.w3.org/2000/svg" width="152" height="152" fill="none"><path fill="#81B3D3" d="M0 0h152v152H0z"/><path fill="#fff" d="M52.25 93.36c.1.1.16.2.16.3.1 0 .2.05.3.16a68.52 68.52 0 0 0 9.35 8.56A21.38 21.38 0 0 0 74 106.5c.1 0 .2.05.3.15h.46c.1 0 .2.05.31.15h1.68c.52-.1.98-.2 1.38-.3 1.64-.3 3.2-.93 4.6-1.84 1.53-.92 2.7-2.04 3.52-3.36l.31-.61.3-.62c.21-.7.36-1.37.47-1.98.1-.61.15-1.18.15-1.68 0-2.76-1.23-5.05-3.68-6.89a26.33 26.33 0 0 0-7.66-4.43 22.2 22.2 0 0 0-3.22-.92c-.96-.29-1.93-.54-2.9-.76h-.31c-.1-.1-.2-.16-.3-.16a50.18 50.18 0 0 1-14.1-5.8 20.99 20.99 0 0 1-9.04-11.78c-.32-1.07-.63-2.14-.92-3.21a36.64 36.64 0 0 1-.46-3.52c-.1-.35-.14-.71-.15-1.07V54.2c.1-.82.25-1.63.46-2.45.31-2.08.83-4.13 1.53-6.12a23.18 23.18 0 0 1 2.76-5.5c3.26-5.4 7.45-9.28 12.56-11.62A39.14 39.14 0 0 1 78.3 25c1.33 0 2.65.1 3.98.3 1.44.1 2.87.26 4.29.46a52.5 52.5 0 0 1 10.88 3.06 58.48 58.48 0 0 1 10.1 5.05l-8.42 18.8a58.9 58.9 0 0 0-8.73-5.34 21.97 21.97 0 0 0-9.96-2.3h-1.22c-2.35.3-4.55 1.38-6.6 3.21-2.03 1.74-3.05 3.62-3.05 5.66v.92c.1.3.25.61.45.92.2.71.57 1.37 1.08 1.99.5.6 1.07 1.17 1.68 1.68a17.9 17.9 0 0 0 4.9 2.6 267 267 0 0 0 6.75 2.14c1.94.5 3.82 1.02 5.66 1.53 1.84.4 3.37.81 4.6 1.22 5.72 2.04 10 5.45 12.87 10.25A29.43 29.43 0 0 1 112 92.13v.77c0 .61-.05 1.22-.15 1.83v1.69a37.71 37.71 0 0 1-5.21 15.14 28.29 28.29 0 0 1-11.18 11 48.94 48.94 0 0 1-5.37 2.15c-1.82.5-3.66.96-5.51 1.37-1.52.3-3.05.51-4.6.61-1.47.2-2.95.3-4.44.31h-1.69a51.48 51.48 0 0 1-18.07-3.98A56.31 56.31 0 0 1 40 112.93l12.25-19.57Z"/></svg>